<svg width="334" height="233" viewBox="0 0 334 233" fill="none" xmlns="http://www.w3.org/2000/svg">
<path fill-rule="evenodd" clip-rule="evenodd" d="M167.12 21.8399C144.112 21.8399 141.811 24.2786 129.903 24.2786C119.984 24.2786 90.1984 0 75.3208 0C60.4433 0 43.0629 8.74527 43.0629 33.9869V63.1119C43.094 70.7543 45.8612 94.1786 56.7434 87.9187C43.8869 103.11 42.5966 120.834 42.7676 137.983C39.3008 138.977 35.7719 140.111 32.3362 141.276C21.7027 144.91 10.4164 149.539 5.33283 152.832C2.7353 154.509 0.910783 157.148 0.260641 160.169C-0.389502 163.19 0.187988 166.345 1.86607 168.941C3.54415 171.536 6.18537 173.359 9.20868 174.009C12.232 174.658 15.3897 174.081 17.9873 172.404C20.4124 170.836 29.1959 166.968 39.876 163.317L43.4205 162.152C44.1356 168.878 45.9234 175.045 48.5818 180.637L48.2087 180.839C41.8348 184.194 35.9273 188.062 32.1652 190.516L30.4085 191.666C27.811 193.343 25.9865 195.982 25.3363 199.002C24.6862 202.023 25.2637 205.178 26.9417 207.774C28.6198 210.369 31.261 212.192 34.2844 212.842C37.3077 213.492 40.4654 212.915 43.0629 211.238L45.0995 209.902C48.9082 207.417 53.7897 204.232 59.1064 201.436C60.3501 200.774 61.5471 200.173 62.6975 199.634C89.5921 224.845 137.893 233 167.12 233C196.346 233 244.648 224.845 271.542 199.634C272.682 200.173 273.879 200.774 275.133 201.436C280.45 204.232 285.332 207.417 289.14 209.902L291.177 211.238C293.774 212.915 296.932 213.492 299.955 212.842C302.979 212.192 305.62 210.369 307.298 207.774C308.976 205.178 309.554 202.023 308.904 199.002C308.253 195.982 306.429 193.343 303.831 191.666L302.075 190.516C296.879 187.044 291.526 183.815 286.031 180.839L285.658 180.637C288.316 175.045 290.104 168.878 290.819 162.152L294.364 163.317C305.044 166.968 313.827 170.836 316.268 172.404C318.864 173.987 321.977 174.494 324.942 173.816C327.906 173.138 330.489 171.329 332.138 168.775C333.787 166.222 334.372 163.126 333.768 160.147C333.165 157.169 331.42 154.544 328.907 152.832C323.823 149.539 312.537 144.91 301.919 141.276C298.462 140.096 294.978 138.993 291.472 137.967C291.659 120.818 290.353 103.11 277.481 87.9187C288.363 94.1786 291.161 70.7543 291.177 63.0964V33.9869C291.177 8.74527 273.812 0 258.919 0C244.041 0 214.255 24.2786 204.353 24.2786C192.429 24.2786 190.128 21.8399 167.12 21.8399ZM156.626 164.653C159.767 163.582 163.482 163.1 167.12 163.1C170.758 163.1 174.473 163.582 177.629 164.653C179.184 165.181 181.049 166.02 182.728 167.356C183.878 168.224 184.819 169.339 185.481 170.619C186.143 171.899 186.509 173.31 186.552 174.75C186.552 178.323 184.391 180.808 182.728 182.144C181.065 183.48 179.168 184.319 177.629 184.847C174.473 185.918 170.758 186.4 167.12 186.4C163.482 186.4 159.767 185.918 156.626 184.847C154.78 184.243 153.051 183.329 151.512 182.144C150.361 181.276 149.421 180.161 148.759 178.881C148.097 177.601 147.731 176.19 147.687 174.75C147.687 171.177 149.848 168.692 151.512 167.356C153.175 166.02 155.087 165.181 156.626 164.653ZM200.855 116.5C202.984 112.958 207.166 108.733 213.447 108.733C219.728 108.733 223.925 112.958 226.039 116.5C228.247 120.212 229.304 124.686 229.304 129.129C229.304 133.571 228.247 138.029 226.039 141.726C223.925 145.283 219.728 149.508 213.447 149.508C207.166 149.508 202.984 145.283 200.855 141.742C198.663 137.902 197.536 133.548 197.59 129.129C197.59 124.686 198.647 120.212 200.855 116.516M108.201 116.516C110.33 112.974 114.512 108.749 120.793 108.749C127.073 108.749 131.271 112.974 133.385 116.516C135.593 120.228 136.65 124.702 136.65 129.144C136.65 133.587 135.593 138.045 133.385 141.742C131.271 145.299 127.073 149.524 120.793 149.524C114.512 149.524 110.33 145.299 108.201 141.757C106.009 137.918 104.882 133.564 104.936 129.144C104.936 124.702 105.993 120.212 108.201 116.516Z" fill="#0259DE"/>
</svg>
