<svg width="344" height="250" viewBox="0 0 344 250" fill="none" xmlns="http://www.w3.org/2000/svg">
<path d="M265.625 0C238.906 0 222.656 5.15625 213.281 9.53125C201.25 3.59375 187.5 0 171.875 0C156.25 0 142.5 3.59375 130.469 9.53125C121.094 5.15625 104.844 0 78.125 0C31.25 0 0 125 0 156.25C0 169.219 20.625 181.094 49.0625 185.938C59.0625 220.938 106.25 247.656 164.062 250V183.125C154.844 177.344 140.625 166.875 140.625 156.25C140.625 140.625 171.875 140.625 171.875 140.625C171.875 140.625 203.125 140.625 203.125 156.25C203.125 166.875 188.906 177.344 179.688 183.125V250C237.5 247.656 284.688 220.938 294.688 185.938C323.125 181.094 343.75 169.219 343.75 156.25C343.75 125 312.5 0 265.625 0ZM49.2188 154.219C41.4062 152.344 35.3125 150.156 31.25 148.438C35.1562 105.156 65.625 37.5 78.9062 31.25C87.3438 31.25 93.75 32.1875 99.5312 32.9688C66.7188 69.0625 53.75 125.625 49.2188 154.219ZM125 125C120.856 125 116.882 123.354 113.951 120.424C111.021 117.493 109.375 113.519 109.375 109.375C109.375 100.938 116.406 93.75 125 93.75C129.144 93.75 133.118 95.3962 136.049 98.3265C138.979 101.257 140.625 105.231 140.625 109.375C140.625 118.125 133.594 125 125 125ZM218.75 125C214.606 125 210.632 123.354 207.701 120.424C204.771 117.493 203.125 113.519 203.125 109.375C203.125 100.938 210.156 93.75 218.75 93.75C222.894 93.75 226.868 95.3962 229.799 98.3265C232.729 101.257 234.375 105.231 234.375 109.375C234.375 118.125 227.344 125 218.75 125ZM294.531 154.219C290 125.625 277.031 69.0625 244.219 32.9688C250 32.1875 256.406 31.25 264.844 31.25C278.125 37.5 308.594 105.156 312.5 148.438C308.594 150.156 302.5 152.344 294.531 154.219Z" fill="#0259DE"/>
</svg>
