<svg width="394" height="394" viewBox="0 0 394 394" fill="none" xmlns="http://www.w3.org/2000/svg">
<path fill-rule="evenodd" clip-rule="evenodd" d="M344.701 107.463C321.291 81.1804 287.349 61.5625 246.25 61.5625C185.065 61.5625 133.574 95.9062 101.086 129.716C90.1357 107.48 66.3562 93.3616 51.3677 86.1054C34.7541 78.0612 16.4741 88.9127 14.2415 106.479C13.002 116.214 11.9431 128.945 12.452 141.938C12.961 154.76 15.0459 168.87 20.8081 180.747C23.7905 186.887 27.0683 192.305 30.6417 197C26.832 202.079 23.5352 207.523 20.7999 213.252C15.0377 225.13 12.9527 239.24 12.4438 252.053C11.9267 265.055 12.9938 277.786 14.2332 287.521C16.4659 305.087 34.7541 315.947 51.3595 307.903C66.348 300.638 90.1275 286.52 101.077 264.284C133.566 298.102 185.049 332.438 246.242 332.438C287.349 332.438 321.291 312.82 344.701 286.545C367.93 260.467 381.687 226.854 381.687 197C381.687 167.146 367.939 133.533 344.701 107.463ZM230.761 111.067C232.678 108.47 235.539 106.729 238.727 106.221C241.915 105.712 245.175 106.476 247.805 108.347C250.435 110.219 252.225 113.049 252.79 116.227C253.354 119.406 252.647 122.679 250.822 125.341C238.945 142.045 232.263 168.837 232.263 197C232.263 225.163 238.945 251.963 250.822 268.667C252.647 271.33 253.354 274.603 252.79 277.781C252.225 280.96 250.435 283.789 247.805 285.661C245.175 287.533 241.915 288.296 238.727 287.788C235.539 287.279 232.678 285.539 230.761 282.941C214.853 260.582 207.638 228.101 207.638 197C207.638 165.899 214.853 133.426 230.761 111.067ZM295.5 151.854C292.234 151.854 289.103 153.151 286.794 155.46C284.485 157.769 283.187 160.901 283.187 164.167V172.375C283.187 175.64 284.485 178.772 286.794 181.081C289.103 183.39 292.234 184.687 295.5 184.687C298.765 184.687 301.897 183.39 304.206 181.081C306.515 178.772 307.812 175.64 307.812 172.375V164.167C307.812 160.901 306.515 157.769 304.206 155.46C301.897 153.151 298.765 151.854 295.5 151.854ZM152.494 160.243C153.581 157.208 155.815 154.72 158.716 153.314C161.618 151.908 164.955 151.696 168.01 152.724C171.066 153.751 173.597 155.936 175.059 158.81C176.522 161.683 176.799 165.015 175.831 168.09C173.713 174.394 172.375 185.213 172.375 197C172.375 208.795 173.713 219.614 175.831 225.91C176.799 228.985 176.522 232.317 175.059 235.19C173.597 238.064 171.066 240.249 168.01 241.276C164.955 242.304 161.618 242.092 158.716 240.686C155.815 239.28 153.581 236.792 152.494 233.757C149.137 223.784 147.75 209.903 147.75 197C147.75 184.096 149.145 170.224 152.494 160.243Z" fill="#0259DE"/>
</svg>
