<svg width="190" height="190" viewBox="0 0 190 190" fill="none" xmlns="http://www.w3.org/2000/svg">
<g clip-path="url(#clip0_36_120)">
<path d="M100.359 18.5798C95.6255 16.6088 90.3028 16.5988 85.562 18.5522C80.8211 20.5055 77.0504 24.2622 75.0793 28.9957L71.3633 37.9196C69.3922 42.6531 69.3823 47.9758 71.3356 52.7167C73.289 57.4575 77.0457 61.2283 81.7792 63.1994C86.5127 65.1704 91.8354 65.1804 96.5763 63.227C101.317 61.2737 105.088 57.517 107.059 52.7835L110.775 43.8596C112.746 39.126 112.756 33.8034 110.803 29.0625C108.849 24.3216 105.093 20.5509 100.359 18.5798ZM144.979 37.1597C140.245 35.1886 134.922 35.1787 130.181 37.132C125.441 39.0854 121.67 42.842 119.699 47.5755L115.983 56.4994C114.012 61.233 114.002 66.5556 115.955 71.2965C117.909 76.0374 121.665 79.8081 126.399 81.7792C131.132 83.7503 136.455 83.7602 141.196 81.8069C145.937 79.8535 149.707 76.0968 151.678 71.3633L155.394 62.4394C157.365 57.7059 157.375 52.3832 155.422 47.6423C153.469 42.9015 149.712 39.1307 144.979 37.1597ZM55.0075 52.0514C50.2739 50.0804 44.9513 50.0704 40.2104 52.0238C35.4695 53.9771 31.6988 57.7338 29.7277 62.4673L27.8698 66.9293C25.8987 71.6628 25.8887 76.9855 27.8421 81.7263C29.7954 86.4672 33.5521 90.2379 38.2856 92.209C43.0192 94.1801 48.3418 94.19 53.0827 92.2367C57.8236 90.2833 61.5943 86.5267 63.5654 81.7931L65.4233 77.3312C67.3944 72.5977 67.4044 67.275 65.451 62.5341C63.4977 57.7932 59.741 54.0225 55.0075 52.0514ZM153.17 92.9271C148.437 90.956 143.114 90.9461 138.373 92.8994C133.632 94.8528 129.862 98.6094 127.891 103.343L126.033 107.805C124.062 112.538 124.052 117.861 126.005 122.602C127.958 127.343 131.715 131.114 136.449 133.085C141.182 135.056 146.505 135.066 151.246 133.112C155.986 131.159 159.757 127.402 161.728 122.669L163.586 118.207C165.557 113.473 165.567 108.151 163.614 103.41C161.661 98.6689 157.904 94.8982 153.17 92.9271ZM112.618 105.141C111.486 101.403 109.54 97.963 106.921 95.0667C104.301 92.1703 101.073 89.8898 97.4684 88.3886C93.8633 86.8874 89.9706 86.2029 86.0697 86.3841C82.1688 86.5654 78.3564 87.608 74.9061 89.437L35.7094 110.215C19.469 118.814 20.5696 142.424 37.525 149.484C39.9523 150.495 42.578 150.929 45.191 150.739L49.0724 150.471C56.2803 149.969 63.506 151.153 70.1761 153.931C76.8463 156.708 82.7773 161.002 87.4987 166.472L90.0425 169.416C91.7487 171.404 93.9062 172.962 96.3335 173.972C113.289 181.033 130.821 165.181 125.493 147.601L112.618 105.141Z" fill="#84B0FB"/>
</g>
<defs>
<clipPath id="clip0_36_120">
<rect width="145" height="145" fill="white" transform="translate(55.7395) rotate(22.6071)"/>
</clipPath>
</defs>
</svg>
